<?xml version="1.0" encoding="UTF-8" standalone="no"?>
<!DOCTYPE svg PUBLIC "-//W3C//DTD SVG 1.1//EN" "http://www.w3.org/Graphics/SVG/1.1/DTD/svg11.dtd">
<svg width="100%" height="100%" viewBox="0 0 26 26" version="1.1" xmlns="http://www.w3.org/2000/svg" xmlns:xlink="http://www.w3.org/1999/xlink" xml:space="preserve" xmlns:serif="http://www.serif.com/" style="fill-rule:evenodd;clip-rule:evenodd;stroke-linecap:round;stroke-linejoin:round;stroke-miterlimit:1.5;">
    <path d="M23.167,4.481L18.452,3.233L18.452,5.302L22.654,6.414C23.188,6.556 23.506,7.105 23.365,7.637L19.273,23.106C19.131,23.637 18.582,23.958 18.048,23.817L14.821,22.963C14.698,22.975 14.579,23 14.452,23L7.362,23C7.524,23.076 7.692,23.144 7.871,23.191L17.538,25.75C19.14,26.175 20.782,25.219 21.206,23.617L25.299,8.15C25.722,6.549 24.768,4.905 23.167,4.481Z" style="fill:rgb(3,1,4);fill-rule:nonzero;"/>
    <path d="M14.452,0L3.452,0C1.796,0 0.452,1.344 0.452,3L0.452,19C0.452,20.656 1.796,22 3.452,22L14.452,22C16.108,22 17.452,20.656 17.452,19L17.452,3C17.452,1.344 16.108,0 14.452,0ZM15.452,19C15.452,19.551 15.003,20 14.452,20L3.452,20C2.901,20 2.452,19.551 2.452,19L2.452,3C2.452,2.449 2.901,2 3.452,2L14.452,2C15.003,2 15.452,2.449 15.452,3L15.452,19Z" style="fill:rgb(3,1,4);fill-rule:nonzero;"/>
    <g transform="matrix(1,0,0,1,0.89185,0.35034)">
        <path d="M7.766,18.55L7.766,9.878C7.766,9.878 13.972,9.274 13.725,12.478C13.478,15.682 9.503,14.78 9.506,15.09C9.519,16.194 9.535,18.551 9.535,18.55C9.535,18.549 7.766,18.55 7.766,18.55ZM9.401,11.12L9.384,13.531C9.384,13.531 12.351,13.788 12.201,12.148C12.099,11.041 10.261,11.172 9.401,11.12Z" style="stroke:black;stroke-width:0.75px;"/>
    </g>
    <g transform="matrix(1,0,0,1,-4.11963,-6.60007)">
        <path d="M7.766,18.55L7.766,9.878C7.766,9.878 13.972,9.274 13.725,12.478C13.478,15.682 9.503,14.78 9.506,15.09C9.519,16.194 9.535,18.551 9.535,18.55C9.535,18.549 7.766,18.55 7.766,18.55ZM9.401,11.12L9.384,13.531C9.384,13.531 12.351,13.788 12.201,12.148C12.099,11.041 10.261,11.172 9.401,11.12Z" style="stroke:black;stroke-width:0.75px;"/>
    </g>
</svg>
